<mxfile host="65bd71144e">
	<diagram id="fJ32S4T1vNfHYZQcrQM_" name="Page-1">
		<mxGraphModel dx="1992" dy="1189" grid="1" gridSize="10" guides="1" tooltips="1" connect="1"
			arrows="1" fold="1" page="1" pageScale="1" pageWidth="850" pageHeight="1100" math="0"
			shadow="0">
			<root>
				<mxCell id="0" />
				<mxCell id="1" parent="0" />
				<mxCell id="90"
					style="edgeStyle=orthogonalEdgeStyle;html=1;exitX=0.5;exitY=1;exitDx=0;exitDy=0;entryX=0;entryY=0.5;entryDx=0;entryDy=0;"
					edge="1" parent="1" source="2" target="55">
					<mxGeometry relative="1" as="geometry" />
				</mxCell>
				<mxCell id="91"
					style="edgeStyle=orthogonalEdgeStyle;html=1;exitX=0.5;exitY=1;exitDx=0;exitDy=0;entryX=0;entryY=0.5;entryDx=0;entryDy=0;"
					edge="1" parent="1" source="2" target="65">
					<mxGeometry relative="1" as="geometry" />
				</mxCell>
				<mxCell id="92"
					style="edgeStyle=orthogonalEdgeStyle;html=1;exitX=0.5;exitY=1;exitDx=0;exitDy=0;entryX=0;entryY=0.5;entryDx=0;entryDy=0;"
					edge="1" parent="1" source="2" target="7">
					<mxGeometry relative="1" as="geometry" />
				</mxCell>
				<mxCell id="93"
					style="edgeStyle=orthogonalEdgeStyle;html=1;exitX=0.5;exitY=1;exitDx=0;exitDy=0;entryX=0;entryY=0.5;entryDx=0;entryDy=0;"
					edge="1" parent="1" source="2" target="8">
					<mxGeometry relative="1" as="geometry" />
				</mxCell>
				<mxCell id="94"
					style="edgeStyle=orthogonalEdgeStyle;html=1;exitX=0.5;exitY=1;exitDx=0;exitDy=0;entryX=0;entryY=0.5;entryDx=0;entryDy=0;"
					edge="1" parent="1" source="2" target="9">
					<mxGeometry relative="1" as="geometry" />
				</mxCell>
				<mxCell id="95"
					style="edgeStyle=orthogonalEdgeStyle;html=1;exitX=0.5;exitY=1;exitDx=0;exitDy=0;entryX=0;entryY=0.5;entryDx=0;entryDy=0;"
					edge="1" parent="1" source="2" target="31">
					<mxGeometry relative="1" as="geometry" />
				</mxCell>
				<mxCell id="2" value="Mathematics" style="rounded=1;whiteSpace=wrap;html=1;"
					vertex="1" parent="1">
					<mxGeometry x="320" y="80" width="120" height="40" as="geometry" />
				</mxCell>
				<mxCell id="103"
					style="edgeStyle=orthogonalEdgeStyle;html=1;exitX=0.5;exitY=1;exitDx=0;exitDy=0;entryX=0;entryY=0.5;entryDx=0;entryDy=0;"
					edge="1" parent="1" source="3" target="82">
					<mxGeometry relative="1" as="geometry" />
				</mxCell>
				<mxCell id="111"
					style="edgeStyle=orthogonalEdgeStyle;html=1;exitX=0.5;exitY=1;exitDx=0;exitDy=0;entryX=0;entryY=0.5;entryDx=0;entryDy=0;"
					edge="1" parent="1" source="3" target="104">
					<mxGeometry relative="1" as="geometry" />
				</mxCell>
				<mxCell id="112"
					style="edgeStyle=orthogonalEdgeStyle;html=1;exitX=0.5;exitY=1;exitDx=0;exitDy=0;entryX=0;entryY=0.5;entryDx=0;entryDy=0;"
					edge="1" parent="1" source="3" target="105">
					<mxGeometry relative="1" as="geometry" />
				</mxCell>
				<mxCell id="113"
					style="edgeStyle=orthogonalEdgeStyle;html=1;exitX=0.5;exitY=1;exitDx=0;exitDy=0;entryX=0;entryY=0.5;entryDx=0;entryDy=0;"
					edge="1" parent="1" source="3" target="106">
					<mxGeometry relative="1" as="geometry" />
				</mxCell>
				<mxCell id="114"
					style="edgeStyle=orthogonalEdgeStyle;html=1;exitX=0.5;exitY=1;exitDx=0;exitDy=0;entryX=0;entryY=0.5;entryDx=0;entryDy=0;"
					edge="1" parent="1" source="3" target="107">
					<mxGeometry relative="1" as="geometry" />
				</mxCell>
				<mxCell id="115"
					style="edgeStyle=orthogonalEdgeStyle;html=1;exitX=0.5;exitY=1;exitDx=0;exitDy=0;entryX=0;entryY=0.5;entryDx=0;entryDy=0;"
					edge="1" parent="1" source="3" target="108">
					<mxGeometry relative="1" as="geometry" />
				</mxCell>
				<mxCell id="3" value="Sciences" style="rounded=1;whiteSpace=wrap;html=1;" vertex="1"
					parent="1">
					<mxGeometry x="320" y="520" width="120" height="40" as="geometry" />
				</mxCell>
				<mxCell id="96"
					style="edgeStyle=orthogonalEdgeStyle;html=1;exitX=0.5;exitY=1;exitDx=0;exitDy=0;entryX=0;entryY=0.5;entryDx=0;entryDy=0;"
					edge="1" parent="1" source="4" target="79">
					<mxGeometry relative="1" as="geometry" />
				</mxCell>
				<mxCell id="97"
					style="edgeStyle=orthogonalEdgeStyle;html=1;exitX=0.5;exitY=1;exitDx=0;exitDy=0;entryX=0;entryY=0.5;entryDx=0;entryDy=0;"
					edge="1" parent="1" source="4" target="81">
					<mxGeometry relative="1" as="geometry" />
				</mxCell>
				<mxCell id="99"
					style="edgeStyle=orthogonalEdgeStyle;html=1;exitX=0.5;exitY=1;exitDx=0;exitDy=0;entryX=0;entryY=0.5;entryDx=0;entryDy=0;"
					edge="1" parent="1" source="4" target="98">
					<mxGeometry relative="1" as="geometry" />
				</mxCell>
				<mxCell id="100"
					style="edgeStyle=orthogonalEdgeStyle;html=1;exitX=0.5;exitY=1;exitDx=0;exitDy=0;entryX=0;entryY=0.5;entryDx=0;entryDy=0;"
					edge="1" parent="1" source="4" target="16">
					<mxGeometry relative="1" as="geometry" />
				</mxCell>
				<mxCell id="101"
					style="edgeStyle=orthogonalEdgeStyle;html=1;exitX=0.5;exitY=1;exitDx=0;exitDy=0;entryX=0;entryY=0.5;entryDx=0;entryDy=0;"
					edge="1" parent="1" source="4" target="26">
					<mxGeometry relative="1" as="geometry" />
				</mxCell>
				<mxCell id="102"
					style="edgeStyle=orthogonalEdgeStyle;html=1;exitX=0.5;exitY=1;exitDx=0;exitDy=0;entryX=0;entryY=0.5;entryDx=0;entryDy=0;"
					edge="1" parent="1" source="4" target="15">
					<mxGeometry relative="1" as="geometry" />
				</mxCell>
				<mxCell id="4" value="Sociology" style="rounded=1;whiteSpace=wrap;html=1;"
					vertex="1" parent="1">
					<mxGeometry x="580" y="80" width="120" height="40" as="geometry" />
				</mxCell>
				<mxCell id="122"
					style="edgeStyle=orthogonalEdgeStyle;html=1;exitX=0.5;exitY=1;exitDx=0;exitDy=0;entryX=0;entryY=0.5;entryDx=0;entryDy=0;"
					edge="1" parent="1" source="6" target="120">
					<mxGeometry relative="1" as="geometry" />
				</mxCell>
				<mxCell id="123"
					style="edgeStyle=orthogonalEdgeStyle;html=1;exitX=0.5;exitY=1;exitDx=0;exitDy=0;entryX=0;entryY=0.5;entryDx=0;entryDy=0;"
					edge="1" parent="1" source="6" target="121">
					<mxGeometry relative="1" as="geometry" />
				</mxCell>
				<mxCell id="6" value="Art" style="rounded=1;whiteSpace=wrap;html=1;" vertex="1"
					parent="1">
					<mxGeometry x="580" y="520" width="120" height="40" as="geometry" />
				</mxCell>
				<mxCell id="7" value="Algebra"
					style="shape=hexagon;perimeter=hexagonPerimeter2;whiteSpace=wrap;html=1;fixedSize=1;"
					vertex="1" parent="1">
					<mxGeometry x="420" y="260" width="120" height="40" as="geometry" />
				</mxCell>
				<mxCell id="8" value="Geometry"
					style="shape=hexagon;perimeter=hexagonPerimeter2;whiteSpace=wrap;html=1;fixedSize=1;"
					vertex="1" parent="1">
					<mxGeometry x="420" y="320" width="120" height="40" as="geometry" />
				</mxCell>
				<mxCell id="9" value="Calculus"
					style="shape=hexagon;perimeter=hexagonPerimeter2;whiteSpace=wrap;html=1;fixedSize=1;"
					vertex="1" parent="1">
					<mxGeometry x="420" y="380" width="120" height="40" as="geometry" />
				</mxCell>
				<mxCell id="68"
					style="edgeStyle=orthogonalEdgeStyle;html=1;exitX=0.5;exitY=1;exitDx=0;exitDy=0;entryX=0;entryY=0.5;entryDx=0;entryDy=0;"
					edge="1" parent="1" source="10" target="66">
					<mxGeometry relative="1" as="geometry" />
				</mxCell>
				<mxCell id="69"
					style="edgeStyle=orthogonalEdgeStyle;html=1;exitX=0.5;exitY=1;exitDx=0;exitDy=0;entryX=0;entryY=0.5;entryDx=0;entryDy=0;"
					edge="1" parent="1" source="10" target="56">
					<mxGeometry relative="1" as="geometry" />
				</mxCell>
				<mxCell id="70"
					style="edgeStyle=orthogonalEdgeStyle;html=1;exitX=0.5;exitY=1;exitDx=0;exitDy=0;entryX=0;entryY=0.5;entryDx=0;entryDy=0;"
					edge="1" parent="1" source="10" target="57">
					<mxGeometry relative="1" as="geometry" />
				</mxCell>
				<mxCell id="71"
					style="edgeStyle=orthogonalEdgeStyle;html=1;exitX=0.5;exitY=1;exitDx=0;exitDy=0;entryX=0;entryY=0.5;entryDx=0;entryDy=0;"
					edge="1" parent="1" source="10" target="58">
					<mxGeometry relative="1" as="geometry" />
				</mxCell>
				<mxCell id="72"
					style="edgeStyle=orthogonalEdgeStyle;html=1;exitX=0.5;exitY=1;exitDx=0;exitDy=0;entryX=0;entryY=0.5;entryDx=0;entryDy=0;"
					edge="1" parent="1" source="10" target="59">
					<mxGeometry relative="1" as="geometry" />
				</mxCell>
				<mxCell id="73"
					style="edgeStyle=orthogonalEdgeStyle;html=1;exitX=0.5;exitY=1;exitDx=0;exitDy=0;entryX=0;entryY=0.5;entryDx=0;entryDy=0;"
					edge="1" parent="1" source="10" target="67">
					<mxGeometry relative="1" as="geometry" />
				</mxCell>
				<mxCell id="76"
					style="edgeStyle=orthogonalEdgeStyle;html=1;exitX=0.5;exitY=1;exitDx=0;exitDy=0;entryX=0;entryY=0.5;entryDx=0;entryDy=0;"
					edge="1" parent="1" source="10" target="74">
					<mxGeometry relative="1" as="geometry" />
				</mxCell>
				<mxCell id="77"
					style="edgeStyle=orthogonalEdgeStyle;html=1;exitX=0.5;exitY=1;exitDx=0;exitDy=0;entryX=0;entryY=0.5;entryDx=0;entryDy=0;"
					edge="1" parent="1" source="10" target="75">
					<mxGeometry relative="1" as="geometry" />
				</mxCell>
				<mxCell id="89"
					style="edgeStyle=orthogonalEdgeStyle;html=1;exitX=0.5;exitY=1;exitDx=0;exitDy=0;entryX=0;entryY=0.5;entryDx=0;entryDy=0;"
					edge="1" parent="1" source="10" target="88">
					<mxGeometry relative="1" as="geometry" />
				</mxCell>
				<mxCell id="110"
					style="edgeStyle=orthogonalEdgeStyle;html=1;exitX=0.5;exitY=1;exitDx=0;exitDy=0;entryX=0;entryY=0.5;entryDx=0;entryDy=0;"
					edge="1" parent="1" source="10" target="109">
					<mxGeometry relative="1" as="geometry" />
				</mxCell>
				<mxCell id="117"
					style="edgeStyle=orthogonalEdgeStyle;html=1;exitX=0.5;exitY=1;exitDx=0;exitDy=0;entryX=0;entryY=0.5;entryDx=0;entryDy=0;"
					edge="1" parent="1" source="10" target="116">
					<mxGeometry relative="1" as="geometry" />
				</mxCell>
				<mxCell id="10" value="Fundamental Skills" style="rounded=1;whiteSpace=wrap;html=1;"
					vertex="1" parent="1">
					<mxGeometry x="50" y="80" width="120" height="40" as="geometry" />
				</mxCell>
				<mxCell id="15" value="Theology"
					style="shape=hexagon;perimeter=hexagonPerimeter2;whiteSpace=wrap;html=1;fixedSize=1;"
					vertex="1" parent="1">
					<mxGeometry x="680" y="440" width="120" height="40" as="geometry" />
				</mxCell>
				<mxCell id="16" value="Mythology"
					style="shape=hexagon;perimeter=hexagonPerimeter2;whiteSpace=wrap;html=1;fixedSize=1;"
					vertex="1" parent="1">
					<mxGeometry x="680" y="320" width="120" height="40" as="geometry" />
				</mxCell>
				<mxCell id="26" value="Philosophy"
					style="shape=hexagon;perimeter=hexagonPerimeter2;whiteSpace=wrap;html=1;fixedSize=1;"
					vertex="1" parent="1">
					<mxGeometry x="680" y="380" width="120" height="40" as="geometry" />
				</mxCell>
				<mxCell id="31" value="Economics"
					style="shape=hexagon;perimeter=hexagonPerimeter2;whiteSpace=wrap;html=1;fixedSize=1;"
					vertex="1" parent="1">
					<mxGeometry x="420" y="440" width="120" height="40" as="geometry" />
				</mxCell>
				<mxCell id="44"
					style="edgeStyle=orthogonalEdgeStyle;html=1;exitX=0.5;exitY=1;exitDx=0;exitDy=0;entryX=0;entryY=0.5;entryDx=0;entryDy=0;"
					edge="1" parent="1" target="34">
					<mxGeometry relative="1" as="geometry">
						<mxPoint x="900" y="260" as="sourcePoint" />
					</mxGeometry>
				</mxCell>
				<mxCell id="45"
					style="edgeStyle=orthogonalEdgeStyle;html=1;exitX=0.5;exitY=1;exitDx=0;exitDy=0;entryX=0;entryY=0.5;entryDx=0;entryDy=0;"
					edge="1" parent="1" target="38">
					<mxGeometry relative="1" as="geometry">
						<mxPoint x="900" y="260" as="sourcePoint" />
					</mxGeometry>
				</mxCell>
				<mxCell id="46"
					style="edgeStyle=orthogonalEdgeStyle;html=1;exitX=0.5;exitY=1;exitDx=0;exitDy=0;entryX=0;entryY=0.5;entryDx=0;entryDy=0;"
					edge="1" parent="1" target="39">
					<mxGeometry relative="1" as="geometry">
						<mxPoint x="900" y="260" as="sourcePoint" />
					</mxGeometry>
				</mxCell>
				<mxCell id="55" value="Fundamental Arithmetic"
					style="rounded=0;whiteSpace=wrap;html=1;" vertex="1" parent="1">
					<mxGeometry x="420" y="140" width="120" height="40" as="geometry" />
				</mxCell>
				<mxCell id="56" value="Logic" style="rounded=0;whiteSpace=wrap;html=1;" vertex="1"
					parent="1">
					<mxGeometry x="150" y="200" width="120" height="40" as="geometry" />
				</mxCell>
				<mxCell id="57" value="Critical Thinking" style="rounded=0;whiteSpace=wrap;html=1;"
					vertex="1" parent="1">
					<mxGeometry x="150" y="260" width="120" height="40" as="geometry" />
				</mxCell>
				<mxCell id="58" value="Problem Solving" style="rounded=0;whiteSpace=wrap;html=1;"
					vertex="1" parent="1">
					<mxGeometry x="150" y="320" width="120" height="40" as="geometry" />
				</mxCell>
				<mxCell id="59" value="Ethics" style="rounded=0;whiteSpace=wrap;html=1;" vertex="1"
					parent="1">
					<mxGeometry x="150" y="380" width="120" height="40" as="geometry" />
				</mxCell>
				<mxCell id="65" value="Personal Economics" style="rounded=0;whiteSpace=wrap;html=1;"
					vertex="1" parent="1">
					<mxGeometry x="420" y="200" width="120" height="40" as="geometry" />
				</mxCell>
				<mxCell id="66" value="Basic Literacy: English"
					style="rounded=0;whiteSpace=wrap;html=1;" vertex="1" parent="1">
					<mxGeometry x="150" y="140" width="120" height="40" as="geometry" />
				</mxCell>
				<mxCell id="67" value="Project Management: Basic"
					style="rounded=0;whiteSpace=wrap;html=1;" vertex="1" parent="1">
					<mxGeometry x="150" y="440" width="120" height="40" as="geometry" />
				</mxCell>
				<mxCell id="74" value="Self Care" style="rounded=0;whiteSpace=wrap;html=1;"
					vertex="1" parent="1">
					<mxGeometry x="150" y="500" width="120" height="40" as="geometry" />
				</mxCell>
				<mxCell id="75" value="Social Care" style="rounded=0;whiteSpace=wrap;html=1;"
					vertex="1" parent="1">
					<mxGeometry x="150" y="680" width="120" height="40" as="geometry" />
				</mxCell>
				<mxCell id="79" value="History" style="rounded=0;whiteSpace=wrap;html=1;" vertex="1"
					parent="1">
					<mxGeometry x="680" y="140" width="120" height="40" as="geometry" />
				</mxCell>
				<mxCell id="81" value="Politics" style="rounded=0;whiteSpace=wrap;html=1;"
					vertex="1" parent="1">
					<mxGeometry x="680" y="200" width="120" height="40" as="geometry" />
				</mxCell>
				<mxCell id="82" value="Scientific Method" style="rounded=0;whiteSpace=wrap;html=1;"
					vertex="1" parent="1">
					<mxGeometry x="420" y="580" width="120" height="40" as="geometry" />
				</mxCell>
				<mxCell id="88" value="Technology Literacy"
					style="rounded=0;whiteSpace=wrap;html=1;" vertex="1" parent="1">
					<mxGeometry x="150" y="740" width="120" height="40" as="geometry" />
				</mxCell>
				<mxCell id="98" value="Civics" style="rounded=0;whiteSpace=wrap;html=1;" vertex="1"
					parent="1">
					<mxGeometry x="680" y="260" width="120" height="40" as="geometry" />
				</mxCell>
				<mxCell id="104"
					value="Biology&lt;span style=&quot;color: rgba(0, 0, 0, 0); font-family: monospace; font-size: 0px; text-align: start;&quot;&gt;%3CmxGraphModel%3E%3Croot%3E%3CmxCell%20id%3D%220%22%2F%3E%3CmxCell%20id%3D%221%22%20parent%3D%220%22%2F%3E%3CmxCell%20id%3D%222%22%20value%3D%22Mythology%22%20style%3D%22shape%3Dhexagon%3Bperimeter%3DhexagonPerimeter2%3BwhiteSpace%3Dwrap%3Bhtml%3D1%3BfixedSize%3D1%3B%22%20vertex%3D%221%22%20parent%3D%221%22%3E%3CmxGeometry%20x%3D%22460%22%20y%3D%22280%22%20width%3D%22120%22%20height%3D%2240%22%20as%3D%22geometry%22%2F%3E%3C%2FmxCell%3E%3C%2Froot%3E%3C%2FmxGraphModel%3E&lt;/span&gt;"
					style="shape=hexagon;perimeter=hexagonPerimeter2;whiteSpace=wrap;html=1;fixedSize=1;"
					vertex="1" parent="1">
					<mxGeometry x="420" y="640" width="120" height="40" as="geometry" />
				</mxCell>
				<mxCell id="105" value="Chemistry"
					style="shape=hexagon;perimeter=hexagonPerimeter2;whiteSpace=wrap;html=1;fixedSize=1;"
					vertex="1" parent="1">
					<mxGeometry x="420" y="700" width="120" height="40" as="geometry" />
				</mxCell>
				<mxCell id="106" value="Physics"
					style="shape=hexagon;perimeter=hexagonPerimeter2;whiteSpace=wrap;html=1;fixedSize=1;"
					vertex="1" parent="1">
					<mxGeometry x="420" y="760" width="120" height="40" as="geometry" />
				</mxCell>
				<mxCell id="107" value="Geoscience"
					style="shape=hexagon;perimeter=hexagonPerimeter2;whiteSpace=wrap;html=1;fixedSize=1;"
					vertex="1" parent="1">
					<mxGeometry x="420" y="820" width="120" height="40" as="geometry" />
				</mxCell>
				<mxCell id="108" value="Astroscience"
					style="shape=hexagon;perimeter=hexagonPerimeter2;whiteSpace=wrap;html=1;fixedSize=1;"
					vertex="1" parent="1">
					<mxGeometry x="420" y="880" width="120" height="40" as="geometry" />
				</mxCell>
				<mxCell id="109" value="Home Care" style="rounded=0;whiteSpace=wrap;html=1;"
					vertex="1" parent="1">
					<mxGeometry x="150" y="620" width="120" height="40" as="geometry" />
				</mxCell>
				<mxCell id="116" value="Cooking &amp;amp; Diet"
					style="rounded=0;whiteSpace=wrap;html=1;" vertex="1" parent="1">
					<mxGeometry x="150" y="560" width="120" height="40" as="geometry" />
				</mxCell>
				<mxCell id="120" value="Basics of Art" style="rounded=0;whiteSpace=wrap;html=1;"
					vertex="1" parent="1">
					<mxGeometry x="670" y="580" width="120" height="40" as="geometry" />
				</mxCell>
				<mxCell id="121" value="Art History"
					style="shape=hexagon;perimeter=hexagonPerimeter2;whiteSpace=wrap;html=1;fixedSize=1;"
					vertex="1" parent="1">
					<mxGeometry x="670" y="640" width="120" height="40" as="geometry" />
				</mxCell>
				<mxCell id="124" value="Fundamental Curriculum"
					style="text;html=1;strokeColor=none;fillColor=none;align=center;verticalAlign=middle;whiteSpace=wrap;rounded=0;fontFamily=Noto Sans;fontSource=https%3A%2F%2Ffonts.googleapis.com%2Fcss%3Ffamily%3DNoto%2BSans;fontStyle=1;fontSize=16;"
					vertex="1" parent="1">
					<mxGeometry x="40" y="40" width="760" height="40" as="geometry" />
				</mxCell>
				<mxCell id="130" value="Legend"
					style="swimlane;whiteSpace=wrap;html=1;fontFamily=Noto Sans;fontSource=https%3A%2F%2Ffonts.googleapis.com%2Fcss%3Ffamily%3DNoto%2BSans;fontSize=16;"
					vertex="1" parent="1">
					<mxGeometry x="640" y="830" width="160" height="220" as="geometry" />
				</mxCell>
				<mxCell id="129" value="Subject Area" style="rounded=1;whiteSpace=wrap;html=1;"
					vertex="1" parent="130">
					<mxGeometry x="20" y="40" width="120" height="40" as="geometry" />
				</mxCell>
				<mxCell id="127" value="Tier 1 Course" style="rounded=0;whiteSpace=wrap;html=1;"
					vertex="1" parent="130">
					<mxGeometry x="20" y="100" width="120" height="40" as="geometry" />
				</mxCell>
				<mxCell id="128" value="Tier 2 Course"
					style="shape=hexagon;perimeter=hexagonPerimeter2;whiteSpace=wrap;html=1;fixedSize=1;"
					vertex="1" parent="130">
					<mxGeometry x="20" y="160" width="120" height="40" as="geometry" />
				</mxCell>
			</root>
		</mxGraphModel>
	</diagram>
</mxfile>